<svg width="241" height="157" viewBox="0 0 241 157" fill="none" xmlns="http://www.w3.org/2000/svg">
<circle cx="5" cy="5" r="5" fill="white"/>
<circle cx="26" cy="5" r="5" fill="white"/>
<circle cx="47" cy="5" r="5" fill="white"/>
<circle cx="68" cy="5" r="5" fill="white"/>
<circle cx="89" cy="5" r="5" fill="white"/>
<circle cx="110" cy="5" r="5" fill="white"/>
<circle cx="131" cy="5" r="5" fill="white"/>
<circle cx="152" cy="5" r="5" fill="white"/>
<circle cx="173" cy="5" r="5" fill="white"/>
<circle cx="194" cy="5" r="5" fill="white"/>
<circle cx="215" cy="5" r="5" fill="white"/>
<circle cx="236" cy="5" r="5" fill="white"/>
<circle cx="5" cy="26" r="5" fill="white"/>
<circle cx="26" cy="26" r="5" fill="white"/>
<circle cx="47" cy="26" r="5" fill="white"/>
<circle cx="68" cy="26" r="5" fill="white"/>
<circle cx="89" cy="26" r="5" fill="white"/>
<circle cx="110" cy="26" r="5" fill="white"/>
<circle cx="131" cy="26" r="5" fill="white"/>
<circle cx="152" cy="26" r="5" fill="white"/>
<circle cx="173" cy="26" r="5" fill="white"/>
<circle cx="194" cy="26" r="5" fill="white"/>
<circle cx="215" cy="26" r="5" fill="white"/>
<circle cx="236" cy="26" r="5" fill="white"/>
<circle cx="5" cy="47" r="5" fill="white"/>
<circle cx="26" cy="47" r="5" fill="white"/>
<circle cx="47" cy="47" r="5" fill="white"/>
<circle cx="68" cy="47" r="5" fill="white"/>
<circle cx="89" cy="47" r="5" fill="white"/>
<circle cx="110" cy="47" r="5" fill="white"/>
<circle cx="131" cy="47" r="5" fill="white"/>
<circle cx="152" cy="47" r="5" fill="white"/>
<circle cx="173" cy="47" r="5" fill="white"/>
<circle cx="194" cy="47" r="5" fill="white"/>
<circle cx="215" cy="47" r="5" fill="white"/>
<circle cx="236" cy="47" r="5" fill="white"/>
<circle cx="5" cy="68" r="5" fill="white"/>
<circle cx="26" cy="68" r="5" fill="white"/>
<circle cx="47" cy="68" r="5" fill="white"/>
<circle cx="68" cy="68" r="5" fill="white"/>
<circle cx="89" cy="68" r="5" fill="white"/>
<circle cx="110" cy="68" r="5" fill="white"/>
<circle cx="131" cy="68" r="5" fill="white"/>
<circle cx="152" cy="68" r="5" fill="white"/>
<circle cx="173" cy="68" r="5" fill="white"/>
<circle cx="194" cy="68" r="5" fill="white"/>
<circle cx="215" cy="68" r="5" fill="white"/>
<circle cx="236" cy="68" r="5" fill="white"/>
<circle cx="5" cy="89" r="5" fill="white"/>
<circle cx="26" cy="89" r="5" fill="white"/>
<circle cx="47" cy="89" r="5" fill="white"/>
<circle cx="68" cy="89" r="5" fill="white"/>
<circle cx="89" cy="89" r="5" fill="white"/>
<circle cx="110" cy="89" r="5" fill="white"/>
<circle cx="131" cy="89" r="5" fill="white"/>
<circle cx="152" cy="89" r="5" fill="white"/>
<circle cx="173" cy="89" r="5" fill="white"/>
<circle cx="194" cy="89" r="5" fill="white"/>
<circle cx="215" cy="89" r="5" fill="white"/>
<circle cx="236" cy="89" r="5" fill="white"/>
<circle cx="5" cy="110" r="5" fill="white"/>
<circle cx="26" cy="110" r="5" fill="white"/>
<circle cx="47" cy="110" r="5" fill="white"/>
<circle cx="68" cy="110" r="5" fill="white"/>
<circle cx="89" cy="110" r="5" fill="white"/>
<circle cx="110" cy="110" r="5" fill="white"/>
<circle cx="131" cy="110" r="5" fill="white"/>
<circle cx="152" cy="110" r="5" fill="white"/>
<circle cx="173" cy="110" r="5" fill="white"/>
<circle cx="194" cy="110" r="5" fill="white"/>
<circle cx="215" cy="110" r="5" fill="white"/>
<circle cx="236" cy="110" r="5" fill="white"/>
<circle cx="5" cy="131" r="5" fill="white"/>
<circle cx="26" cy="131" r="5" fill="white"/>
<circle cx="47" cy="131" r="5" fill="white"/>
<circle cx="68" cy="131" r="5" fill="white"/>
<circle cx="89" cy="131" r="5" fill="white"/>
<circle cx="110" cy="131" r="5" fill="white"/>
<circle cx="131" cy="131" r="5" fill="white"/>
<circle cx="152" cy="131" r="5" fill="white"/>
<circle cx="173" cy="131" r="5" fill="white"/>
<circle cx="194" cy="131" r="5" fill="white"/>
<circle cx="215" cy="131" r="5" fill="white"/>
<circle cx="236" cy="131" r="5" fill="white"/>
<circle cx="5" cy="152" r="5" fill="white"/>
<circle cx="26" cy="152" r="5" fill="white"/>
<circle cx="47" cy="152" r="5" fill="white"/>
<circle cx="68" cy="152" r="5" fill="white"/>
<circle cx="89" cy="152" r="5" fill="white"/>
<circle cx="110" cy="152" r="5" fill="white"/>
<circle cx="131" cy="152" r="5" fill="white"/>
<circle cx="152" cy="152" r="5" fill="white"/>
<circle cx="173" cy="152" r="5" fill="white"/>
<circle cx="194" cy="152" r="5" fill="white"/>
<circle cx="215" cy="152" r="5" fill="white"/>
<circle cx="236" cy="152" r="5" fill="white"/>
</svg>
